# xmcd CD database file
#
# Track frame offsets:
#	150
#	19827
#	43215
#	57662
#	73222
#	101515
#	118007
#	135085
#	151035
#	168370
#	191515
#	213697
#
# Disc length: 3061 seconds
#
# Revision: 0
# Processed by: cddbd v1.5.1PL0 Copyright (c) Steve Scherf et al.
# Submitted via: CDex 1.51
#
DISCID=a90bf30c
DTITLE=Five A Slide - Strike Up The Band!
DYEAR=1992
DGENRE=Jazz
TTITLE0=Strike Up The Band
TTITLE1=Pink Panther
TTITLE2=Slippin' Around
TTITLE3=I Gotta Right To Sing The Blues
TTITLE4=Watch What Happens
TTITLE5=Roy's Creole Trombone
TTITLE6=Jubilee
TTITLE7=Lush Life
TTITLE8=How Come You Do Me Like You Do?
TTITLE9=Wee Jimmy's Boogie
TTITLE10=Blues For Kay Cee
TTITLE11=Original Dixieland One Step
EXTD=YEAR: 1992
EXTT0=
EXTT1=
EXTT2=
EXTT3=
EXTT4=
EXTT5=
EXTT6=
EXTT7=
EXTT8=
EXTT9=
EXTT10=
EXTT11=
PLAYORDER=
